<svg id="eBqOm3C1xgt1" xmlns="http://www.w3.org/2000/svg" xmlns:xlink="http://www.w3.org/1999/xlink" viewBox="80 -30 825 525" shape-rendering="geometricPrecision" text-rendering="geometricPrecision" project-id="653fa3ded7a846a1801338b827492593" export-id="2e1aa6935b934af4b41e7e5792a62475" cached="false" style="background-color:transparent"><path d="M531.791982,376.456655v26.578795h27.131226c1.41351-11.827634-9.937607-25.821294-27.131226-26.578795Z" transform="matrix(-.897221 0.003731-.003759-.904018 989.156112 740.116626)" fill="#febd59" stroke="#febd59" stroke-width="1.65"/><path d="M447.1741,221.84828h171.83622c.3198-11.69785,1.00699-32.6288-23.88924-32.28197h-131.98876l18.8079-30.16419h113.18086c51.82651,0,55.03742,33.84883,55.08272,62.44616h49.99625l-.3425-89.73492l32.87997-6.85v34.13876c52.68812,0,105.10241-1.02374,108.50815,0c41.01745,4.48288,41.01743,37.56567,41.01743,95.13704h-453.11947l18.03047-32.69088Zm402.80348,0c.38704-16.14098,0-32.42303-25.80156-32.28197h-91.4385v32.28197h117.24006Z" transform="translate(.000001 0)" fill="#622701" stroke="#622701" stroke-width="1.65"/><path d="M518.37696,-6.45227l31.68811-6.72172L396.64509,254.53916h-29.47356L518.37696,-6.45227Z" fill="#622701" stroke="#622701" stroke-width="1.65"/><g transform="translate(6.843705 0)"><path d="M733.193487,336.408688h.00001-.00001v0Zm46.573078-.189791l-17.249019,28.258606-433.985332,1.403446-17.37336,29.472251h-28.164054l62.096469-105.258058h28.184797l-28.184797,46.313546h206.988235l.689964-46.313546l24.148624-5.613765v51.927311h84.020188c-6.171946-5.500348-14.471834-13.505243-17.951492-22.388279l13.734327-25.641049c16.755626,25.352144,45.271777,48.025412,76.472515,48.029328l46.572935-.189791Z" fill="#622701" stroke="#622701" stroke-width="1.65"/></g><path d="M104.305598,194.312918c-26.907636-52.166219,12.823921-80.189703,47.651938-99.246357L223.89163,221.84828h72.989592v-46.952373l30.460118-5.865235v85.508487l-117.786951.000001-68.35043-118.355981c-16.791043,5.008508-19.714627,30.4395-6.508875,50.222025L282.301159,440.90189h513.230958l-19.670695,32.12603-508.32087.868271L104.305598,194.312918" transform="translate(0 0.000001)" fill="#622701" stroke="#622701" stroke-width="1.65"/><ellipse rx="28.58785" ry="71.664329" transform="matrix(2.548985 0 0 1.016806 294.301529 82.856122)" fill="#febd59" stroke="#febd59"/><g transform="translate(3 0)"><path d="M172.51447,19.42113c2.13521-1.13047,5.04218-1.5434,8.72091-1.23879c4.60428.77014,6.56999,3.86236,5.46563,5.564-2.14558-1.28377-5.8718-.37672-7.60558,1.71335-.80739,1.40388-3.79306,3.76103-5.93289,4.72804-.97775,1.02601-11.34735.76051-21.50708-.17142-6.33877-.28695-12.23317,3.61249-12.16407,7.25708-5.67096-1.37967-12.6606-5.7461-12.5186-10.34271-.1334-2.22314.64127-5.42618,1.13563-7.9782c5.72665,1.59307,15.42368,3.8851,19.54632,3.71201-.98426-1.12258-2.89865-3.24336-2.89865-3.24336-14.76111-19.22858-9.20633-43.123,7.35237-48.95574-1.02746,13.71389,8.55103,43.32525,20.40601,48.95574Z" transform="translate(144.370875 105.076029)" fill="#612600" stroke="#612600" stroke-width="0.5"/><path d="M0,0C5.168154,1.1147,7.924277,3.574862,11.1875,7.6875C24.447029,29.410686,24.88767,52.204269,22.463867,76.774902c-.24093,2.539135-.43722,5.075328-.612304,7.619629-.813676,10.244861-4.304409,17.443182-9.771973,26.033692-.74961,1.179623-1.496711,2.360846-2.241211,3.543701-1.030977,1.625095-2.088256,3.233416-3.146973,4.840576-1.55455,2.971816-1.848792,4.583454-1.503906,7.875c5.26897-5.643214,10.493299-11.27486,15.3125-17.3125c5.362537-6.652627,11.203547-12.835598,17.098145-19.014648c1.332628-1.402638,2.64859-2.821083,3.960449-4.243164C61.31087,65.282083,90.167646,53.188733,118.75,52.375c8.771294.159285,17.564774,1.55427,24.4375,7.3125c1.78376,3.56752,1.595613,7.110647,1,11-3.466878,8.70982-10.603655,15.364367-17,22-.658711.733477-1.317422,1.466953-1.996094,2.222656C111.915821,109.270629,92.454087,117.405887,73.125,118.1875c-9.163198-.163801-17.871505-2.554485-26.680176-4.92749-.744917-.188928-1.489834-.377857-2.257324-.57251-.871165-.22905-1.742329-.458101-2.639893-.694092-.778835-.100949-1.55767-.201899-2.360107-.305908-2.449203,1.902168-2.449203,1.902168-4.5625,4.625-1.115684,1.318711-1.115684,1.318711-2.253906,2.664063-2.066787,2.565921-4.131609,5.13316-6.183594,7.710937c1.200117.063164,2.400234.126328,3.636719.191406C61.336125,128.999746,98.72958,144.018773,120.125,167.8125c3.181632,4.435002,5.029847,7.981107,5.125,13.5-1.324373,4.206831-3.348326,6.214026-7.0625,8.375-15.206422,6.386697-33.744844-.648839-48.112793-6.515869C39.813634,170.300944,39.813634,170.300944,29.1875,158.6875c-1.376939-1.447187-2.756067-2.892292-4.136719-4.335937-3.989269-4.189408-7.937265-8.41539-11.863281-12.664063-4.027612,1.847691-6.713011,4.527624-9.75,7.6875-3.955117,4.035943-7.945839,7.925831-12.246094,11.597656-5.865131,5.019089-11.634004,10.165946-17.003906,15.714844c2.170247.697579,3.584962,1.103982,5.824219.542969c20.384255-5.086915,47.101521,4.981645,64.396484,15.352051c17.912897,11.124282,48.418111,31.673231,53.521485,53.241699.327382,3.635928-.529459,5.018343-2.742188,7.863281-8.456577,5.637718-23.565757,4.044263-33.234375,2.386719C33.629719,249.513593,5.211143,234.68818,-15.8125,214.6875c-.747656-.638086-1.495312-1.276172-2.265625-1.933594-6.081598-5.4543-9.631349-11.738101-13.285156-18.947021-.391875-.759983-.78375-1.519966-1.1875-2.302979-.340716-.686345-.681431-1.37269-1.032471-2.079834-1.480707-2.091811-2.884861-2.776091-5.229248-3.736572-.96873.83918-.96873.83918-1.957031,1.695313-10.654358,9.065677-21.919856,17.327927-33.375,25.351562-.655005.460195-1.31001.920391-1.984864,1.394531-1.219119.852843-2.442577,1.699527-3.670898,2.539063-1.372636.957903-2.698501,1.982282-4.012207,3.019531c0,.66,0,1.32,0,2c5.756171-.543388,5.756171-.543388,11.4375-1.5625c21.272364-3.631867,44.346822,10.968519,61.085938,22.714844c4.255333,3.17472,8.395062,6.452535,12.476562,9.847656.961641.776016,1.923281,1.552031,2.914063,2.351563c12.38781,10.10374,26.1766,21.587394,34.085937,35.648437.527871.928125.527871.928125,1.066406,1.875c2.253415,4.52704,2.647577,8.206451,1.933594,13.125-6.072504,6.650838-13.491691,7.535214-22.089844,8.023438-31.475413-.188664-58.461-22.231154-80.910156-42.023438-.789148-.694402-.789148-.694402-1.594238-1.402832-3.537214-3.130612-6.990423-6.333949-10.405762-9.597168-.752812-.702539-1.505625-1.405078-2.28125-2.128906-5.618772-5.694409-12.71875-16.529108-12.71875-24.871094-.5775-.28875-1.155-.5775-1.75-.875-2.083333-1.041667-4.166667-2.083333-6.25-3.125-11.277839,7.590001-22.358732,15.360498-33.16748,23.605469-2.931935,2.231176-5.88267,4.43713-8.83252,6.644531-.969375.727031-1.93875,1.454063-2.9375,2.203125-.680625.510469-1.36125,1.020938-2.0625,1.546875c1.081343,1.631258,1.081343,1.631258,3,3c3.102618.333939,3.102618.333939,6.652344.117188c1.348293-.03313,2.696601-.065661,4.044922-.097657c2.106425-.067612,4.211977-.143342,6.317627-.231933c24.279404-.950778,41.57014,14.512651,58.672607,30.118652c1.969056,1.782794,3.971402,3.504934,6,5.21875c35.83503,31.401081,35.83503,31.401081,37.515625,51.277344.15965,8.634386.15965,8.634386-3.203125,12.597656-4.827056,4.223674-9.37414,4.347774-15.566406,4.273438-34.802484-2.771529-65.45068-31.383145-87.171875-56.355469-2.151139-2.596971-4.224904-5.230674-6.261719-7.917969-.718008-.924258-1.436016-1.848516-2.175781-2.800781-5.055609-6.682276-9.603204-13.107269-10.324219-21.636719-.080102-3.5594-.080102-3.5594-2.25-4.9375-1.11375-.309375-1.11375-.309375-2.25-.625-1.670389-.657283-3.337542-1.322906-5-2-.920391.799219-1.840781,1.598438-2.789062,2.421875-12.643533,10.972774-25.314945,21.902322-38.210938,32.578125.674663-.01571,1.349326-.031421,2.044434-.047607c3.1101-.063054,6.220066-.101604,9.330566-.139893c1.591348-.037705,1.591348-.037705,3.214844-.076172c20.60611-.189627,37.368219,12.111533,51.597656,26.013672c6.110079,6.182476,11.045442,13.005476,15.8125,20.25.490327.737021.980654,1.474043,1.48584,2.233398c11.084026,16.745951,22.730493,34.787344,20.51416,55.766602-.873486,3.758023-2.529127,6.407611-4.9375,9.4375-5.630563,2.872736-11.659443,2.315963-17.726562.972656-33.762346-11.067113-63.993438-41.306641-81.335938-71.410156-.430466-.721069-.860933-1.442139-1.304443-2.185059-3.787796-6.830315-4.803879-13.225382-5.508057-20.939941-.120527-1.147266-.241055-2.294531-.365234-3.476562-.29148-2.798202-.565165-5.596906-.822266-8.398438-9.512559,8.149368-18.824494,16.472896-28,25-.645498.598931-1.290996,1.197861-1.956055,1.814941-1.995208,1.851861-3.988633,3.70562-5.981445,5.560059-.921478.855736-.921478.855736-1.861572,1.72876-3.814386,3.556453-7.532835,7.188946-11.200928,10.89624.553491-.01571,1.106982-.031421,1.677246-.047607c19.652756-.484673,31.715495,2.871316,46.307129,16.510009c17.877159,17.435551,32.861338,44.002104,33.25,69.459473.007734,1.028672.007734,1.028672.015625,2.078125.030938,1.028672.030938,1.028672.0625,2.078125.042316,5.543429-1.280826,9.466936-4.8125,13.734375-3.648359,2.888284-8.096261,2.677571-12.5,2.1875-26.278993-6.003686-48.121893-25.112424-62.289062-47.546875-5.922682-9.784416-11.531871-20.829275-12.027344-32.4375-.041895-.93457-.083789-1.869141-.126953-2.832031-.039317-.968086-.078633-1.936172-.119141-2.933594-.043184-.983555-.086367-1.967109-.130859-2.980469-.105862-2.423044-.207943-4.846186-.306641-7.269531-.621167.720868-.621167.720868-1.254883,1.456299-3.827118,4.431433-7.764216,8.751058-11.745117,13.043701-5.361646,5.788477-10.589749,11.666337-15.703125,17.675781-5.829212,6.84241-11.7522,13.565396-17.851562,20.167969-4.160358,4.519238-8.172168,9.158036-12.152344,13.835938-5.820864,6.833766-11.734598,13.548941-17.828125,20.140625-3.222248,3.503108-6.349851,7.081461-9.464844,10.679687-1.311767,1.500641-2.624258,3.00065-3.9375,4.5-.586523.670313-1.173047,1.340625-1.777344,2.03125-.636152.727031-.636152.727031-1.285156,1.46875-4.417438-1.388338-7.083394-3.397134-10-7c.240089-3.849434,2.432056-5.856351,5-8.5625c3.242041-3.492214,6.336418-7.028537,9.3125-10.75c3.890059-4.813354,8.016218-9.335114,12.243164-13.848633c3.923122-4.212798,7.5633-8.602821,11.166992-13.092773c2.938119-3.542877,6.059656-6.900512,9.193848-10.268067c2.970797-3.211196,5.783179-6.504395,8.520996-9.915527c3.366029-4.184956,6.894935-8.144939,10.5625-12.0625c13.476822-13.001288,13.476822-13.001288,20-29.5-2.306407-9.719859-9.765233-15.858058-16.75-22.5625-13.4092-13.385839-13.44177-32.44672-13.498199-50.325592-.000892-1.076332-.000892-1.076332-.001801-2.174408-.000675-.732943-.001349-1.465886-.002045-2.221039.024703-16.890992.493301-35.333455,12.252045-48.716461c4.859839-3.277566,9.308233-3.846709,15-3c3.210796,1.000349,6.065957,2.365781,9,4c.928125.508535.928125.508535,1.875,1.027344c10.901995,6.838081,15.84043,20.288684,18.672852,32.294922c4.804379,23.286436,3.931358,49.027929-3.547852,71.677734c7.574517-5.839145,15.001838-11.707591,22.011719-18.222656c1.988281-1.777344,1.988281-1.777344,4.988281-3.777344.714233-2.786392,1.252323-5.420162,1.6875-8.25.194326-1.127285.194326-1.127285.392578-2.277344c1.087839-6.21884,1.087839-6.21884.919922-12.472656-1.964703-2.246602-1.964703-2.246602-4.625-4.125-10.823823-9.155087-13.755549-22.520204-15.176514-36.145752-.435205-5.9842-.442541-11.981736-.448486-17.979248-.001007-.705319-.002014-1.410637-.003052-2.137329.021081-21.908282,1.269078-45.334298,17.479615-61.886108c6.223039-5.544163,6.223039-5.544163,10.960937-6.101563c5.658428.556567,8.579303,3.01076,12.410156,7.066406c16.175699,19.816266,17.375462,53.784235,18.402344,78.308594.064453,1.211719.128906,2.423437.195313,3.671875.374389,11.830722-2.660346,17.239733-10.605469,25.792969-3.591823,3.515977-7.437345,6.638768-11.402344,9.722656-2.262727,1.626789-2.262727,1.626789-3.1875,3.8125-.040224,2.332987-.043202,4.667067,0,7c7.422673-4.637552,13.888851-9.486496,20.269531-15.480469c3.546437-3.272463,7.267232-6.294476,11.027344-9.316406.892031-.727031,1.784063-1.454062,2.703125-2.203125.611096-.424182,1.222192-.848364,1.851807-1.2854c2.66595-1.976299,4.743806-3.52504,5.834228-6.732666.29825-2.349958.334933-4.552199.251465-6.919434-.021874-1.254177-.021874-1.254177-.044189-2.533691-.434271-8.217498-3.640843-13.983781-7.888916-20.834961-12.638387-21.313837-12.579876-50.290728-7.004395-73.693848c3.480902-13.572747,8.124053-28.980134,18.875-38.5625c4.222929-1.942547,6.491975-2.025821,11.125-1.4375c9.528383,4.991058,13.861842,19.336645,17,29c3.008003,10.538431,5.135438,21.118481,5.203125,32.109375.006969.760713.013938,1.521426.021118,2.305191.017322,2.445201.02372,4.890174.025757,7.335434.001007.830589.002014,1.661179.003052,2.516937-.00773,9.396798-.019678,18.742183-1.503052,28.045563-.109248.695127-.218496,1.390254-.331055,2.106445-1.504168,7.860366-4.735102,13.566775-10.793945,18.768555-.96293.83918-1.925859,1.678359-2.917969,2.542969-2.117572,1.775339-4.246412,3.531554-6.394531,5.269531-1.144687.99-1.144687.99-2.3125,2c0,.66,0,1.32,0,2c.813398-.643242,1.626797-1.286484,2.464844-1.949219c6.587334-5.199397,13.198701-10.367892,19.847656-15.488281.699155-.54189,1.398311-1.083779,2.118652-1.64209c3.725117-2.857589,7.494051-5.567699,11.428223-8.131347.787214-.521507,1.574429-1.043013,2.385498-1.580323c1.509368-.990716,3.033934-1.958772,4.574707-2.899902c3.81359-2.40421,3.81359-2.40421,5.641358-6.317871.058244-2.421743.058244-2.421743-.460938-5.990967-.04125-1.175625-.0825-2.35125-.125-3.5625-.962389-3.780815-2.53514-5.391657-5.128906-8.203125-16.159556-20.678448-16.278858-51.453009-15.746094-76.234375.019336-.93167.038672-1.86334.058594-2.823242.423898-17.036976,1.126378-36.76447,12.941406-50.176758c3.109534-1.554767,5.562668-1.286444,9-1c12.098719,5.92065,19.50196,20.177055,23.75,32.3125c3.927622,12.583894,6.372488,25.575841,6.453125,38.78125.0057.749791.0114,1.499583.017273,2.272095.009385,1.57986.015958,3.15974.019836,4.739624.009629,2.361046.040683,4.721191.072266,7.082031.093146,13.473776.135072,31.153816-9.792969,41.363281-1.788331,1.702572-3.611075,3.37003-5.472656,4.992188-2.35267,2.35057-2.35267,2.35057-2.34375,5.757812.097969.890742.195938,1.781485.296875,2.699219c10.194219-7.451182,20.332832-14.969781,30.375-22.625.884539-.67418,1.769077-1.348359,2.68042-2.042969c3.346228-2.556886,6.67509-5.109225,9.921143-7.792968C-52.8125,178.6875,-52.8125,178.6875,-50.8125,178.6875c-.488803-1.850467-.978012-3.700827-1.46875-5.550781-.53125-2.449219-.53125-2.449219-.6875-4.867188-.591563-6.982558-3.331853-10.966663-7.59375-16.269531-9.128782-11.410638-12.947864-23.950829-15.25-38.3125-.204961-1.276172-.409922-2.552344-.621094-3.867187C-77.953222,98.922048,-78.022623,87.982571,-78.0625,77c-.007901-1.104611-.007901-1.104611-.015961-2.231537-.09739-17.628641.137864-37.022024,12.265961-51.080963c3.203143-2.268893,4.988307-2.956013,8.875-3.125c8.476045,3.051376,12.497788,9.649386,16.258545,17.473145C-25.916918,70.493878,-18.69375,114.985209,-30.5625,149.3125c-1.822302,4.199836-4.46372,6.745951-7.832031,9.769531-1.755217,1.684201-1.755217,1.684201-1.855469,5.042969.144375.845625.28875,1.69125.4375,2.5625c6.799962,0,16.609246-12.250345,21.5-16.8125.694321-.645901,1.388643-1.291802,2.104004-1.957275.656616-.61867,1.313232-1.237339,1.989746-1.874756.58459-.550188,1.16918-1.100376,1.771484-1.667237c3.220422-3.325748,4.608725-4.768412,4.744141-9.551513-.10328-1.484314-.223627-2.967521-.359375-4.449219-.079277-1.101182-.079277-1.101182-.160156-2.224609-.16472-2.158599-.36922-4.30935-.589844-6.462891-.122461-1.219453-.244922-2.438906-.371094-3.695312-.658371-3.459518-1.723342-5.80947-3.441406-8.867188-13.774503-26.525002-11.481799-60.364757-2.955566-88.168945C-12.817178,12.794132,-9.2043,2.24994,0,0Z" transform="matrix(.069981-.028416 0.019732 0.048595 344.946672 96.854929)" fill="#612600"/></g><path d="M531.791982,376.456655v26.578795h27.131226c1.41351-11.827634-9.937607-25.821294-27.131226-26.578795Z" transform="matrix(.897229 0 0 0.904026 55.923451 37.613801)" fill="#febd59" stroke="#febd59" stroke-width="1.65"/><path d="M531.791982,376.456655v26.578795h27.131226c1.41351-11.827634-9.937607-25.821294-27.131226-26.578795Z" transform="matrix(.897229 0 0 0.904026 246.754364-48.526385)" fill="#febd59" stroke="#febd59" stroke-width="1.65"/></svg>
